:FULLY-SPECIFIED
:FORCE-ALL-JOINTS-BE-3DOF
:DEGREES
577
root 7.09409 15.7809 -3.39789 -172.399 72.5931 -177.081
lfemur -21.6375 4.19434 -17.511
ltibia 57.3201 -0 0
lfoot -34.454 2.78924 0.311732
ltoes -1.98563 0 0
rfemur -45.5478 -7.66858 8.3431
rtibia 54.1933 -0 0
rfoot 5.7549 5.24137 0.166594
rtoes -26.9451 0 0
lowerback 7.1908 -0.92289 -3.0861
upperback 3.28372 -1.17588 3.47237
thorax -0.464633 -0.561039 5.42437
lowerneck -4.05047 -13.8941 -4.29524
upperneck 10.6137 -18.9981 6.69744
head 4.92072 -9.1255 1.54412
lclavicle -4.32357e-015 -2.62396e-014 0
lhumerus -35.0586 -19.2365 92.7971
lradius 52.9861 -0 0
lwrist 25.8154 0 0
lhand -22.3001 -3.46808 0.0364124
lfingers 7.12502 -0 0
lthumb 4.11859 26.4508 0.0338325
rclavicle -4.32357e-015 -2.62396e-014 0
rhumerus 22.1883 17.1042 -76.2064
rradius 134.268 -0 0
rwrist -44.2166 0 0
rhand -26.6147 -20.1527 0.0075313
rfingers 7.12502 -0 0
rthumb -0.0479469 -50.1313 0.00726772
578
root 7.03513 15.8275 -3.39798 -171.678 73.7207 -176.414
lfemur -21.2785 4.41891 -17.6234
ltibia 56.3521 -0 0
lfoot -34.2484 3.53385 0.303711
ltoes -1.74341 0 0
rfemur -45.5758 -8.02757 8.86305
rtibia 54.414 -0 0
rfoot 6.10238 5.47635 0.162318
rtoes -26.3867 0 0
lowerback 7.00479 -0.936223 -3.24177
upperback 3.19079 -1.21336 3.38382
thorax -0.452729 -0.584375 5.41954
lowerneck -4.15804 -13.8383 -4.2586
upperneck 10.7452 -18.932 6.6687
head 4.96881 -9.0869 1.52355
lclavicle -4.32357e-015 -2.62396e-014 0
lhumerus -34.3905 -19.8168 92.2728
lradius 52.9993 -0 0
lwrist 25.7202 0 0
lhand -22.0981 -3.37978 0.0354785
lfingers 7.12502 -0 0
lthumb 4.31364 26.5357 0.0329648
rclavicle -4.32357e-015 -2.62396e-014 0
rhumerus 22.4255 17.0747 -75.956
rradius 134.237 -0 0
rwrist -44.2199 0 0
rhand -26.5617 -20.0832 0.00733818
rfingers 7.12502 -0 0
rthumb 0.00327486 -50.0618 0.00708136
579
root 6.97616 15.8741 -3.39807 -170.855 74.8457 -175.646
lfemur -20.9199 4.64418 -17.7345
ltibia 55.3841 -0 0
lfoot -34.0429 4.27842 0.293019
ltoes -1.50119 0 0
rfemur -45.6071 -8.38631 9.38365
rtibia 54.6348 -0 0
rfoot 6.44984 5.7113 0.156617
rtoes -25.8282 0 0
lowerback 6.81881 -0.95006 -3.3974
upperback 3.09792 -1.25099 3.29533
thorax -0.440822 -0.607709 5.4147
lowerneck -4.26555 -13.7824 -4.22208
upperneck 10.8766 -18.8658 6.64013
head 5.01687 -9.04828 1.50301
lclavicle -4.32357e-015 -2.62396e-014 0
lhumerus -33.7142 -20.3914 91.7393
lradius 53.0125 -0 0
lwrist 25.625 0 0
lhand -21.8961 -3.29149 0.0342333
lfingers 7.12502 -0 0
lthumb 4.50869 26.6207 0.0318079
rclavicle -4.32357e-015 -2.62396e-014 0
rhumerus 22.6624 17.0442 -75.7058
rradius 134.206 -0 0
rwrist -44.2232 0 0
rhand -26.5086 -20.0137 0.00708069
rfingers 7.12502 -0 0
rthumb 0.0544964 -49.9923 0.00683288
580
root 6.9172 15.9207 -3.39816 -169.905 75.9674 -174.751
lfemur -20.5616 4.87013 -17.8441
ltibia 54.416 -0 0
lfoot -33.8376 5.02294 0.279657
ltoes -1.25897 0 0
rfemur -45.6417 -8.74474 9.90493
rtibia 54.8556 -0 0
rfoot 6.79728 5.94622 0.149492
rtoes -25.2697 0 0
lowerback 6.63287 -0.964403 -3.55298
upperback 3.00511 -1.28875 3.2069
thorax -0.428914 -0.631043 5.40986
lowerneck -4.373 -13.7264 -4.18567
upperneck 11.008 -18.7995 6.61173
head 5.06492 -9.00965 1.48252
lclavicle -4.32357e-015 -2.62396e-014 0
lhumerus -33.0296 -20.96 91.1967
lradius 53.0257 -0 0
lwrist 25.5298 0 0
lhand -21.6941 -3.20319 0.0326768
lfingers 7.12502 -0 0
lthumb 4.70374 26.7056 0.0303617
rclavicle -4.32357e-015 -2.62396e-014 0
rhumerus 22.8992 17.0127 -75.4558
rradius 134.175 -0 0
rwrist -44.2265 0 0
rhand -26.4556 -19.9441 0.00675883
rfingers 7.12502 -0 0
rthumb 0.105718 -49.9228 0.00652229
581
root 6.85823 15.9673 -3.39825 -168.796 77.0848 -173.696
lfemur -20.2036 5.09677 -17.9524
ltibia 53.448 -0 0
lfoot -33.6324 5.76742 0.263629
ltoes -1.01675 0 0
rfemur -45.6797 -9.10285 10.4269
rtibia 55.0763 -0 0
rfoot 7.14468 6.18109 0.140942
rtoes -24.7112 0 0
lowerback 6.44697 -0.97925 -3.70851
upperback 2.91236 -1.32667 3.11853
thorax -0.417004 -0.654376 5.40501
lowerneck -4.48038 -13.6704 -4.14938
upperneck 11.1392 -18.7332 6.5835
head 5.11294 -8.971 1.46205
lclavicle -4.32357e-015 -2.62396e-014 0
lhumerus -32.3367 -21.5224 90.6446
lradius 53.0389 -0 0
lwrist 25.4346 0 0
lhand -21.4921 -3.11491 0.0308091
lfingers 7.12502 -0 0
lthumb 4.89879 26.7906 0.0286263
rclavicle -4.32357e-015 -2.62396e-014 0
rhumerus 23.1359 16.9803 -75.2059
rradius 134.143 -0 0
rwrist -44.2299 0 0
rhand -26.4026 -19.8746 0.00637259
rfingers 7.12502 -0 0
rthumb 0.156938 -49.8533 0.00614957
582
root 6.79927 16.0139 -3.39834 -167.484 78.1968 -172.439
lfemur -19.8459 5.32407 -18.0593
ltibia 52.4799 -0 0
lfoot -33.4275 6.51182 0.244936
ltoes -0.774525 0 0
rfemur -45.7209 -9.4606 10.9497
rtibia 55.2971 -0 0
rfoot 7.49205 6.4159 0.130968
rtoes -24.1527 0 0
lowerback 6.26111 -0.994601 -3.864
upperback 2.81966 -1.36472 3.03022
thorax -0.405092 -0.677708 5.40016
lowerneck -4.58771 -13.6144 -4.11321
upperneck 11.2704 -18.6668 6.55544
head 5.16095 -8.93233 1.44162
lclavicle -4.32357e-015 -2.62396e-014 0
lhumerus -31.6352 -22.0785 90.0832
lradius 53.0521 -0 0
lwrist 25.3394 0 0
lhand -21.2902 -3.02663 0.0286302
lfingers 7.12502 -0 0
lthumb 5.09383 26.8755 0.0266018
rclavicle -4.32357e-015 -2.62396e-014 0
rhumerus 23.3723 16.9468 -74.9563
rradius 134.112 -0 0
rwrist -44.2332 0 0
rhand -26.3495 -19.805 0.00592199
rfingers 7.12502 -0 0
rthumb 0.208159 -49.7839 0.00571474
583
root 6.74031 16.0604 -3.39843 -165.906 79.3017 -170.915
lfemur -19.4885 5.55204 -18.1648
ltibia 51.5119 -0 0
lfoot -33.2229 7.25616 0.223583
ltoes -0.532305 0 0
rfemur -45.7656 -9.81797 11.4733
rtibia 55.5178 -0 0
rfoot 7.83937 6.65064 0.119571
rtoes -23.5943 0 0
lowerback 6.07529 -1.01046 -4.01944
upperback 2.72702 -1.40292 2.94197
thorax -0.393177 -0.701038 5.39531
lowerneck -4.69497 -13.5582 -4.07715
upperneck 11.4015 -18.6003 6.52756
head 5.20894 -8.89365 1.42123
lclavicle -4.32357e-015 -2.62396e-014 0
lhumerus -30.9251 -22.6281 89.5121
lradius 53.0653 -0 0
lwrist 25.2441 0 0
lhand -21.0882 -2.93836 0.0261401
lfingers 7.12502 -0 0
lthumb 5.28887 26.9605 0.0242882
rclavicle -4.32357e-015 -2.62396e-014 0
rhumerus 23.6085 16.9124 -74.7068
rradius 134.081 -0 0
rwrist -44.2365 0 0
rhand -26.2965 -19.7355 0.00540702
rfingers 7.12502 -0 0
rthumb 0.259378 -49.7144 0.00521779
584
root 6.68134 16.107 -3.39852 -163.974 80.397 -169.038
lfemur -19.1313 5.78065 -18.2689
ltibia 50.5439 -0 0
lfoot -33.0185 8.00041 0.199573
ltoes -0.290084 0 0
rfemur -45.8136 -10.1749 11.9978
rtibia 55.7386 -0 0
rfoot 8.18664 6.88532 0.106751
rtoes -23.0358 0 0
lowerback 5.88952 -1.02682 -4.17482
upperback 2.63444 -1.44126 2.85378
thorax -0.381261 -0.724368 5.39045
lowerneck -4.80217 -13.502 -4.04121
upperneck 11.5325 -18.5338 6.49985
head 5.25691 -8.85495 1.40087
lclavicle -4.32357e-015 -2.62396e-014 0
lhumerus -30.2062 -23.1711 88.9314
lradius 53.0785 -0 0
lwrist 25.1489 0 0
lhand -20.8862 -2.8501 0.0233389
lfingers 7.12502 -0 0
lthumb 5.48391 27.0454 0.0216854
rclavicle -4.32357e-015 -2.62396e-014 0
rhumerus 23.8445 16.8769 -74.4575
rradius 134.05 -0 0
rwrist -44.2398 0 0
rhand -26.2435 -19.6659 0.00482768
rfingers 7.12502 -0 0
rthumb 0.310597 -49.6449 0.00465872
585
root 6.62238 16.1536 -3.39861 -161.557 81.479 -166.675
lfemur -18.7745 6.00991 -18.3716
ltibia 49.5758 -0 0
lfoot -32.8145 8.74458 0.172911
ltoes -0.0478632 0 0
rfemur -45.865 -10.5314 12.5232
rtibia 55.9594 -0 0
rfoot 8.53386 7.11991 0.0925095
rtoes -22.4773 0 0
lowerback 5.70378 -1.04368 -4.33015
upperback 2.54191 -1.47974 2.76565
thorax -0.369343 -0.747697 5.38558
lowerneck -4.90931 -13.4457 -4.00538
upperneck 11.6634 -18.4673 6.47231
head 5.30486 -8.81623 1.38054
lclavicle -4.32357e-015 -2.62396e-014 0
lhumerus -29.4784 -23.7074 88.3409
lradius 53.0918 -0 0
lwrist 25.0537 0 0
lhand -20.6842 -2.76185 0.0202265
lfingers 7.12502 -0 0
lthumb 5.67894 27.1303 0.0187936
rclavicle -4.32357e-015 -2.62396e-014 0
rhumerus 24.0803 16.8405 -74.2084
rradius 134.018 -0 0
rwrist -44.2432 0 0
rhand -26.1904 -19.5964 0.00418397
rfingers 7.12502 -0 0
rthumb 0.361816 -49.5754 0.00403754
586
root 6.56342 16.2002 -3.3987 -158.453 82.5421 -163.625
lfemur -18.4179 6.2398 -18.473
ltibia 48.6078 -0 0
lfoot -32.6108 9.48864 0.143601
ltoes 0.194357 -0 0
rfemur -45.9198 -10.8874 13.0495
rtibia 56.1801 -0 0
rfoot 8.88101 7.35441 0.0768465
rtoes -21.9188 0 0
lowerback 5.5181 -1.06105 -4.48543
upperback 2.44944 -1.51836 2.67758
thorax -0.357422 -0.771024 5.38071
lowerneck -5.01639 -13.3894 -3.96967
upperneck 11.7942 -18.4006 6.44493
head 5.35279 -8.77749 1.36025
lclavicle -4.32357e-015 -2.62396e-014 0
lhumerus -28.7415 -24.2366 87.7406
lradius 53.105 -0 0
lwrist 24.9585 0 0
lhand -20.4823 -2.67361 0.0168031
lfingers 7.12502 -0 0
lthumb 5.87396 27.2152 0.0156128
rclavicle -4.32357e-015 -2.62396e-014 0
rhumerus 24.3159 16.8031 -73.9596
rradius 133.987 -0 0
rwrist -44.2465 0 0
rhand -26.1374 -19.5269 0.0034759
rfingers 7.12502 -0 0
rthumb 0.413033 -49.5059 0.00335425
